<svg id="Layer_1" data-name="Layer 1" xmlns="http://www.w3.org/2000/svg" viewBox="0 0 245.51 336.14"><path d="M12.6,323.48v-3.12h-.12a11.29,11.29,0,0,1-2.43,2.58,5.75,5.75,0,0,1-3.45.9,7.66,7.66,0,0,1-2.19-.33,5.67,5.67,0,0,1-2.13-1.23,5.87,5.87,0,0,1-1.65-2.43A11.31,11.31,0,0,1,0,315.74a21.69,21.69,0,0,1,.42-4.53A7.23,7.23,0,0,1,2,307.94a6.52,6.52,0,0,1,2.94-1.89,15,15,0,0,1,4.74-.63h.66a3.37,3.37,0,0,1,.66.06,3.73,3.73,0,0,0,.72.06,7.28,7.28,0,0,1,.9.06v-3.18a4.66,4.66,0,0,0-.66-2.58,2.64,2.64,0,0,0-2.4-1,3.46,3.46,0,0,0-2.19.78,3.7,3.7,0,0,0-1.29,2.28H.12a9.78,9.78,0,0,1,2.76-6.6,8.69,8.69,0,0,1,2.88-1.89,9.87,9.87,0,0,1,3.78-.69,10.62,10.62,0,0,1,3.6.6,8.22,8.22,0,0,1,2.94,1.8,8.8,8.8,0,0,1,1.92,3,11.26,11.26,0,0,1,.72,4.2v21.18Zm0-13.08a10,10,0,0,0-1.68-.18,6,6,0,0,0-3.39.93,3.76,3.76,0,0,0-1.41,3.39A4.46,4.46,0,0,0,7,317.36a2.8,2.8,0,0,0,2.34,1.08,3,3,0,0,0,2.43-1,4.31,4.31,0,0,0,.87-2.88Z"/><path d="M23.22,323.48V293.06h6.12V296h.12a8.7,8.7,0,0,1,2.31-2.37,6,6,0,0,1,3.45-.93,7,7,0,0,1,2.28.39,5.28,5.28,0,0,1,2,1.29A6.5,6.5,0,0,1,41,296.69a9.69,9.69,0,0,1,.54,3.45v23.34H35.4V302.42a4.07,4.07,0,0,0-.78-2.64,2.7,2.7,0,0,0-2.22-1A2.58,2.58,0,0,0,30,299.9a6,6,0,0,0-.66,3.12v20.46Z"/><path d="M46.56,286.88v-6.12h6.12v6.12Zm0,36.6V293.06h6.12v30.42Z"/><path d="M57.72,323.48V293.06h6.12V296H64a8.7,8.7,0,0,1,2.31-2.37,6,6,0,0,1,3.45-.93,5.46,5.46,0,0,1,3.3,1,9.83,9.83,0,0,1,2.16,2.1,12.88,12.88,0,0,1,2.52-2.16,7,7,0,0,1,3.84-.9,7.55,7.55,0,0,1,2.34.39A5.71,5.71,0,0,1,86,294.38a6.72,6.72,0,0,1,1.56,2.31,8.81,8.81,0,0,1,.6,3.45v23.34H82.08V302.42a4.07,4.07,0,0,0-.78-2.64,2.7,2.7,0,0,0-2.22-1,2.58,2.58,0,0,0-2.4,1.08A6,6,0,0,0,76,303v20.46H69.9V302.42a4.07,4.07,0,0,0-.78-2.64,2.7,2.7,0,0,0-2.22-1,2.58,2.58,0,0,0-2.4,1.08,6,6,0,0,0-.66,3.12v20.46Z"/><path d="M104.82,323.48v-3.12h-.12a11.29,11.29,0,0,1-2.43,2.58,5.75,5.75,0,0,1-3.45.9,7.66,7.66,0,0,1-2.19-.33,5.67,5.67,0,0,1-2.13-1.23,5.87,5.87,0,0,1-1.65-2.43,11.31,11.31,0,0,1-.63-4.11,21.69,21.69,0,0,1,.42-4.53,7.23,7.23,0,0,1,1.56-3.27,6.52,6.52,0,0,1,2.94-1.89,15,15,0,0,1,4.74-.63h.66a3.37,3.37,0,0,1,.66.06,3.73,3.73,0,0,0,.72.06,7.28,7.28,0,0,1,.9.06v-3.18a4.66,4.66,0,0,0-.66-2.58,2.64,2.64,0,0,0-2.4-1,3.46,3.46,0,0,0-2.19.78,3.7,3.7,0,0,0-1.29,2.28H92.34a9.78,9.78,0,0,1,2.76-6.6A8.69,8.69,0,0,1,98,293.39a9.87,9.87,0,0,1,3.78-.69,10.62,10.62,0,0,1,3.6.6,8.22,8.22,0,0,1,2.94,1.8,8.8,8.8,0,0,1,1.92,3,11.26,11.26,0,0,1,.72,4.2v21.18Zm0-13.08a10,10,0,0,0-1.68-.18,6,6,0,0,0-3.39.93,3.76,3.76,0,0,0-1.41,3.39,4.46,4.46,0,0,0,.84,2.82,2.8,2.8,0,0,0,2.34,1.08,3,3,0,0,0,2.43-1,4.31,4.31,0,0,0,.87-2.88Z"/><path d="M115.08,280.76h6.12V314.9a3.37,3.37,0,0,0,.63,2.37,4,4,0,0,0,2.37.81v5.76a19.7,19.7,0,0,1-3.78-.33,6.55,6.55,0,0,1-2.88-1.29,5.57,5.57,0,0,1-1.83-2.55,12.43,12.43,0,0,1-.63-4.35Z"/><path d="M137.7,301.58a3,3,0,0,0-1-2.34,3.22,3.22,0,0,0-2.13-.78,2.74,2.74,0,0,0-2.22.93,3.22,3.22,0,0,0-.78,2.13,3.55,3.55,0,0,0,.42,1.65,3.91,3.91,0,0,0,2.16,1.47l3.6,1.44a8.73,8.73,0,0,1,4.71,3.6,9.94,9.94,0,0,1,1.29,5,9.16,9.16,0,0,1-.69,3.57,9.48,9.48,0,0,1-1.89,2.91,8.61,8.61,0,0,1-2.88,2,9.19,9.19,0,0,1-3.66.72,8.82,8.82,0,0,1-6.24-2.34,8.59,8.59,0,0,1-2-2.85,10.19,10.19,0,0,1-.84-4h5.76a5.83,5.83,0,0,0,.87,2.34,2.66,2.66,0,0,0,2.43,1.08,3.62,3.62,0,0,0,2.37-.87,3,3,0,0,0,1.05-2.43,3.55,3.55,0,0,0-.66-2.16,5.19,5.19,0,0,0-2.4-1.56L132,310a10,10,0,0,1-4.53-3.21,8.22,8.22,0,0,1-1.65-5.19,8.83,8.83,0,0,1,.72-3.57,8.69,8.69,0,0,1,2-2.85,8.08,8.08,0,0,1,2.82-1.83,9.52,9.52,0,0,1,3.48-.63,8.91,8.91,0,0,1,3.45.66,7.89,7.89,0,0,1,2.73,1.86,8.87,8.87,0,0,1,1.8,2.85,9.36,9.36,0,0,1,.66,3.51Z"/><path d="M147.72,293.06v-9.24h6.12v9.24h3.78v4.8h-3.78v16.86a5.29,5.29,0,0,0,.21,1.68,1.67,1.67,0,0,0,.69.9,2.6,2.6,0,0,0,1.17.36c.46,0,1,.06,1.71.06v5.76H155.1a8.27,8.27,0,0,1-3.51-.66,6.33,6.33,0,0,1-2.25-1.68,6.6,6.6,0,0,1-1.23-2.31,8.27,8.27,0,0,1-.39-2.49V297.86h-3.06v-4.8Z"/><path d="M166.44,314.72a2.94,2.94,0,0,0,.81,2.22,3,3,0,0,0,2.19.78,2.43,2.43,0,0,0,2.31-1,5.87,5.87,0,0,0,.69-2h6.11a8.75,8.75,0,0,1-5.34,8.46,10.44,10.44,0,0,1-8.67-.48,8.32,8.32,0,0,1-3.08-3.18,7.87,7.87,0,0,1-.9-2.76,21.34,21.34,0,0,1-.24-3.42v-10a21.34,21.34,0,0,1,.24-3.42,7.87,7.87,0,0,1,.9-2.76,8.32,8.32,0,0,1,3.08-3.18,9.42,9.42,0,0,1,4.9-1.2,9.76,9.76,0,0,1,3.81.72,8.63,8.63,0,0,1,2.91,2,10.21,10.21,0,0,1,2.39,7h-6.11a3.86,3.86,0,0,0-.82-2.73,3.18,3.18,0,0,0-4.37,0,3.71,3.71,0,0,0-.81,2.61Z"/><path d="M188.27,327a3.42,3.42,0,0,0,.87,2,2.93,2.93,0,0,0,2.37,1,2.46,2.46,0,0,0,2.16-.93,4,4,0,0,0,.66-2.37v-6h-.12a7.47,7.47,0,0,1-2.42,2.31,6.51,6.51,0,0,1-3.28.81q-3.84,0-5.34-2.88a8.13,8.13,0,0,1-.78-2.52,26.62,26.62,0,0,1-.24-4V302.84a46.91,46.91,0,0,1,.18-4.86,5.82,5.82,0,0,1,2.82-4.5,6.11,6.11,0,0,1,3.43-.78,6.9,6.9,0,0,1,1.94.24,6,6,0,0,1,1.48.66,6.59,6.59,0,0,1,1.19,1l1.14,1.23v-2.76h6.13V327.2a10.29,10.29,0,0,1-.52,3.15,7.72,7.72,0,0,1-1.65,2.85,8.51,8.51,0,0,1-2.87,2.13,9.82,9.82,0,0,1-4.15.81,10,10,0,0,1-2.88-.45,7.54,7.54,0,0,1-2.76-1.53,8.54,8.54,0,0,1-2.25-2.73,12,12,0,0,1-1.23-4.41Zm0-12.9a4.91,4.91,0,0,0,.63,2.52,2.52,2.52,0,0,0,2.37,1.08,2.87,2.87,0,0,0,2.19-.93,3.33,3.33,0,0,0,.87-2.37V302.6a4.29,4.29,0,0,0-.83-2.73,2.73,2.73,0,0,0-2.23-1.05A2.47,2.47,0,0,0,189,300a5.46,5.46,0,0,0-.73,3Z"/><path d="M205.49,323.48v-6.12h6.12v6.12Z"/><path d="M216.65,286.88v-6.12h6.12v6.12Zm0,36.6V293.06h6.12v30.42Z"/><path d="M227.27,303.26a22.56,22.56,0,0,1,.24-3.42,8.13,8.13,0,0,1,4-5.94,10.56,10.56,0,0,1,9.78,0,8.13,8.13,0,0,1,4,5.94,22.56,22.56,0,0,1,.24,3.42v10a22.56,22.56,0,0,1-.24,3.42,8.13,8.13,0,0,1-4,5.94,10.56,10.56,0,0,1-9.78,0,8.13,8.13,0,0,1-4-5.94,22.56,22.56,0,0,1-.24-3.42Zm6.12,11a3.71,3.71,0,0,0,.81,2.61,3.19,3.19,0,0,0,4.38,0,3.71,3.71,0,0,0,.81-2.61V302.3a3.71,3.71,0,0,0-.81-2.61,3.19,3.19,0,0,0-4.38,0,3.71,3.71,0,0,0-.81,2.61Z"/><path d="M85.4,219.64c0,10.8-1.8,21.6-1.84,32.4a8.31,8.31,0,0,1-.49,2.93,5.28,5.28,0,0,1-6.93,2.67c-2.88-1.23-1.23-3.22-.84-5.08a71.23,71.23,0,0,0,1.49-8.8c.33-4,0-8.09.46-12.06,2-16-2-31.49-3.4-47.2a2.07,2.07,0,0,0-.4-.95,1.12,1.12,0,0,0-1.83,0,2.4,2.4,0,0,0-.5,1.11c-.22,2.25,0,4.53-.16,6.79C69.49,212.24,68,233,66.41,253.81c-.14,1.82-.82,4.11-2.1,5.18-1,.87-3.68.83-4.93.07-.91-.55-1.18-3.05-.89-4.51,4.35-21.73,1.22-43.61,1.3-65.42,0-7.75-.79-15.5-1.09-23.26-.16-3.88-.87-7.25-3.91-10.2a26.07,26.07,0,0,1-5.32-8.1A198.15,198.15,0,0,1,42,128.64a17.9,17.9,0,0,1-.38-8.76c2.29-11.34,4.93-22.6,7.53-33.87,1.65-7.18,4-14,9.46-19.37,1.45-1.42,2.07-2.66.49-4.46-6.65-7.59-7.13-16.88-7-26.3.07-5.46,1.55-11-.75-16.35a3.67,3.67,0,0,1,.2-2.29,1.11,1.11,0,0,1,1.52-.7,3,3,0,0,1,1.61,1.17c1.95,4.11,3.52,2.22,5.28-.08C63.91,12.46,68.75,7.84,69.66.9a1.2,1.2,0,0,1,.55-.69A1.11,1.11,0,0,1,71.8.52a3,3,0,0,1,.37.79C73.4,6,73.39,6,77,3.7A16.62,16.62,0,0,1,79.47,2a5.18,5.18,0,0,1,1.11-.29A1.11,1.11,0,0,1,81.7,3.34a2,2,0,0,1-.5.58,52.3,52.3,0,0,1-7.62,4.87c-7,3.4-11.15,9.12-13.89,16.14-1.19,3-2.77,5.94-3.81,9a10.2,10.2,0,0,0-.26,3.6,1.09,1.09,0,0,0,1.27,1.05A10.05,10.05,0,0,0,61,37.45c2.24-1.54,3.93-3.87,6-5.67,1-.83,2-1.6,3-2.35a1.11,1.11,0,0,1,1.68,1.32,18.16,18.16,0,0,1-1.79,3.38c-3.05,4.3-6.45,8.35-9.77,12.45-1.74,2.14-1.46,4.06.16,6.09,2.4,3,4.22,3.06,6.59,0a15.66,15.66,0,0,0,1.93-3.15,22.89,22.89,0,0,1,7.31-8.72C79.79,38,82,33,84.36,28.71c2.67-4.79,4.73-9.93,7.28-14.8a14.44,14.44,0,0,1,3.58-3.79,1.3,1.3,0,0,1,1-.07,1.11,1.11,0,0,1,.91,1.16,1.75,1.75,0,0,1-.26,1c-1.68,2.19-3.83,4.09-5.17,6.45s-4.49,5.43-1.28,7.91c2.79,2.16,5.63-.21,7.81-2.52,2.94-3.11,5.71-6.44,9-9.17,2.43-2,5.49-3.32,8.35-4.78.48-.25,1.37.3,2.07.49a7.19,7.19,0,0,1-1.19,1.37c-1,.71-2.41,1.06-3.17,2a36.45,36.45,0,0,0-2.91,4.2,1.12,1.12,0,0,0,.55,1.63c1.36.49,2.71,1,4,1.54l.23.1a1.11,1.11,0,0,1-.36,2.11h0c-13.21.24-22.49,7.63-30.74,16.87q-.36.4-.69.84C79,47,81.06,49.82,88,47.65c2.06-.65,4.09-1.48,6.16-2.11a4.34,4.34,0,0,1,.6-.14,1.1,1.1,0,0,1,1.1,1.68,2.39,2.39,0,0,1-.82.85c-3.28,1.84-6.79,3.28-10.07,5.12a16.47,16.47,0,0,0-5.25,4c-3.75,5.05-3.14,6.72,2.54,9.47a24.36,24.36,0,0,1,4.37,2.93c5.12,4.06,10.19,8.19,15.29,12.28,2.43,2,4.85,4,3.38,7.55-1.32,3.17-4.07,4.17-7.39,4.1-4.28-.1-8.56.16-12.83-.08-4-.23-5.73,1-6.06,5.36-.82,10.71-1,11,9.52,8.31,7.53-1.92,14.62,0,21.54,1.81,8.79,2.38,17.38,1.92,26.15.85,5.74-.7,11.52-1.09,17.25-1.8,9.74-1.19,18.47,1.5,26.4,6.9,4.56,3.11,8.76,6.75,13.26,10,9.76,6.95,11.34,17.19,11.55,28a6.4,6.4,0,0,1-.4,2.95c-.53,1-1.42,2.36-2.33,2.51s-2.29-.95-2.73-1.86c-1.33-2.69-2.27-5.58-3.42-8.37-.92-2.22-2-2.8-3.53-.35-7.83,12.54-6.55,29.87,3.64,39.68,5,4.83,4.9,4.85,2,10.9-4.69,9.89-6.82,20.39-7.78,31.28-.71,7.91-2.14,15.78-3.56,23.6-.82,4.54-6.93,7-10.58,4.39-.67-.47-.95-2.23-.67-3.17.57-1.9,1.83-3.59,2.47-5.48a33.84,33.84,0,0,0,1.49-6.46,13.28,13.28,0,0,0-.52-3.64,28.9,28.9,0,0,0-.8,3.4c-.65,5.6-6.08,8.16-8.25,12.86-.41.89-3.23.94-4.93.9-2.74-.07-3.32-1.8-2.49-4.18a4.24,4.24,0,0,1,.68-1.34c7.35-8.37,8.68-19.67,14.06-29a36.54,36.54,0,0,0,3.54-9.9c2.25-9.59.38-17.92-8-24.18a65.94,65.94,0,0,1-9-8c-4.88-5.34-9.63-10.85-14-16.59-3.66-4.79-6.66-6.2-12.18-3.87-12.21,5.15-25.1,7.17-38.12,8.53-9.07.94-9.81,1-11.73,9.44a83.49,83.49,0,0,0-2,15.09c-.38,9.26-.14,18.53-.14,27.79Z"/></svg>