<svg id="Layer_1" data-name="Layer 1" xmlns="http://www.w3.org/2000/svg" viewBox="0 0 1706.81 648.48"><path d="M74.75,648.48c-1.69-.42-3.38-.86-5.08-1.26a6.86,6.86,0,0,1-5.32-5.29c-.46-1.77-.76-3.59-1.07-5.4a12.92,12.92,0,0,0-3.77-7.59,18.29,18.29,0,0,1-2-2.35,7.43,7.43,0,0,1-1.57-6.29c1.31-6.42,2.72-12.83,3.73-19.29,1.55-10,3-19.91,4.16-29.91a307.24,307.24,0,0,0,1.77-44.78,263.43,263.43,0,0,0-2.82-33c-.56-3.63-1.43-7.21-2.08-10.82a11.47,11.47,0,0,1,1.63-8.27,91.49,91.49,0,0,0,12.62-32.93c2.83-17.15,2-33.93-5.1-50.09-3.37-7.68-6.68-15.4-10-23.11-3-6.9-5.87-13.85-7.26-21.28-.51-2.74-.7-5.53-1.08-8.62A21.13,21.13,0,0,0,49,339.36a7.7,7.7,0,0,0-1.85,1.51c-5.71,6.5-13.26,9.87-21.23,12.48a44.64,44.64,0,0,1-17.72,2.34,21.82,21.82,0,0,1-4.9-1C1.58,354.1,0,353,0,351s1.43-2.91,3-3.66A58.8,58.8,0,0,0,17,338.06a78.58,78.58,0,0,0,10.71-11.62c5.34-7,10.48-14.15,16-21,14.24-17.78,32.9-28,55.21-31.87a130.17,130.17,0,0,1,22.21-1.73c8.16,0,16.32.05,24.47.39,10.4.43,20.6,2.49,30.8,4.47,9,1.75,18,3.47,27.14,4.76a145.2,145.2,0,0,0,17.7,1.18c13.19.21,26.39.12,39.59.23,5.68,0,11.36.16,17-.73,4.73-.75,9.45-1.59,14.17-2.44a69.46,69.46,0,0,1,15.77-1c10.38.5,20.75,1.22,31.13,1.6a105.93,105.93,0,0,0,14.36-.46c6.14-.63,7.84-2.76,7.72-9a50.11,50.11,0,0,0-.8-6.64,5.19,5.19,0,0,0-4.14-4.47c-2.71-.67-5.49-1-8.24-1.52a80.44,80.44,0,0,1-8.46-1.63c-4.25-1.24-7.48-3.85-8.09-8.53A21.51,21.51,0,0,1,334,233.52c1.66-2.64,3.57-5.11,5.31-7.7a45.5,45.5,0,0,0,3-4.87c2.37-4.68,1.41-7.3-3.43-9.26a68.17,68.17,0,0,1-15-8.39c-9.6-7.13-17.44-15.75-22.19-26.87-3.9-9.14-4.84-18.49-1.75-28.08.78-2.43,1.32-2.92,3.81-2.37a19.49,19.49,0,0,1,5.08,2,84.52,84.52,0,0,1,18.33,13.82q5.52,5.32,11.25,10.44c1.46,1.31,3.15,2.36,4.74,3.53l.52-.33c-.16-.88-.24-1.79-.48-2.64A30.53,30.53,0,0,0,337,162.06a102.42,102.42,0,0,0-28.26-24.23c-3.72-2.14-7.85-3.55-11.8-5.3-2-.87-4-1.66-5.93-2.6a28.9,28.9,0,0,1-13.78-14.13,58.64,58.64,0,0,1-5.07-17.93,82.56,82.56,0,0,1,.86-28.39,63.79,63.79,0,0,1,3-9.08,13.49,13.49,0,0,1,2.38-3.57,3.94,3.94,0,0,1,3.42-1.6c.54,2.2.16,4.33,0,6.44-.37,6.55-.76,13.09-1.13,19.63,0,.77.07,1.55.12,2.75,1.47-.52,2.67-.85,3.78-1.37,1.74-.82,3.4-1.79,5.11-2.65a10.87,10.87,0,0,1,6.8-1.27,4.88,4.88,0,0,1-.86,4.28c-1,1.52-2.33,2.84-3.37,4.35a41.33,41.33,0,0,0-3.83,6,15.83,15.83,0,0,0,.16,13.92,24.42,24.42,0,0,0,7,9,37.36,37.36,0,0,0,7.67,5.1,27.1,27.1,0,0,0,0-2.72,212.86,212.86,0,0,1-.94-29.23A37.81,37.81,0,0,0,298,71.05c-2.87-5.7-5.89-11.37-8.29-17.28a149.72,149.72,0,0,1-8.21-27,31.86,31.86,0,0,1-.35-6.91,6.66,6.66,0,0,1,2.46-5,32.65,32.65,0,0,1,1.91,2.81c3.19,6,6.34,12,9.51,18q3.75,7.11,7.56,14.18c.48.89,1.12,1.69,1.93,2.91,1-1.8,1.89-3.2,2.58-4.7,3.28-7.2,6.4-14.48,9.8-21.62,2.46-5.19,5.2-10.26,8-15.3a39.13,39.13,0,0,1,3.8-5.23A13.06,13.06,0,0,1,331,3.76a3.34,3.34,0,0,1,3.8-.56c1.32.69,1.31,2,1.14,3.16a37.79,37.79,0,0,1-1.35,6.79c-2.62,7.54-5.44,15-8.16,22.54q-3.78,10.47-7.51,21a52.37,52.37,0,0,0-2.64,17.47q-.08,18,0,36a22.07,22.07,0,0,0,4.32,13.22,34.21,34.21,0,0,0,14.54,10.72c.25-1.24.46-2.45.75-3.65.53-2.17,1-4.36,1.69-6.48a7.4,7.4,0,0,1,3.84-4.47,37.74,37.74,0,0,1,1.62,3.44c2,5.57,3.88,11.17,5.85,16.75a145.86,145.86,0,0,0,9.58,22.21,60.2,60.2,0,0,0,7.44,10.58c2.28,2.61,5,3.45,8.46,3.56,3.87.13,6.27-1.43,8.57-4.34,6.45-8.19,11.31-17.05,12.75-27.51.54-3.87.68-7.8,1.17-11.68a62.29,62.29,0,0,1,1.44-7.27,19.47,19.47,0,0,1,1.45-3.21c4.58.89,4.66,5.08,6.5,8a5.64,5.64,0,0,0,1-.65c7.66-8.47,14.4-17.57,19.1-28,1.23-2.75,2-5.71,3-8.58a5.55,5.55,0,0,0,.09-1.31c-2.78-.25-5.47-.45-8.14-.75a49.06,49.06,0,0,1-11.68-2.56,16,16,0,0,1-6.85-4.28c-2.48-2.84-2.15-4.32,1.36-5.59,4.23-1.51,8.63-1.52,13-1.23,3.43.23,6.86.54,10.28.76,1.19.08,2.39,0,3.79,0a17.75,17.75,0,0,0,1-2,28.18,28.18,0,0,0,1.67-8.91,7.54,7.54,0,0,0-2.59-6.21,38.27,38.27,0,0,0-5.86-4.1c-3-1.66-6.2-3-9.24-4.57a21.87,21.87,0,0,1-4.4-2.86c-2.1-1.85-1.45-4.56,1.22-5.36a8.74,8.74,0,0,1,3.3-.27c3.95.38,7.58,1.92,11.23,3.33l3.76,1.47c-.24-1.32-.36-2.22-.57-3.11-1.77-7.78-5-15-8.67-22-2.55-4.88-5.23-9.71-7.73-14.63a31.42,31.42,0,0,1-2-5.37A2.33,2.33,0,0,1,413.63,0h.48a17.36,17.36,0,0,1,9.41,6.27c3,3.66,5.78,7.45,8.45,11.33,2.44,3.56,4.59,7.32,6.91,11A32.74,32.74,0,0,0,441,31.22a9.87,9.87,0,0,0-.27-4.94c-.9-4.05-2-8.07-2.8-12.14a10.43,10.43,0,0,1,.51-6.86,6,6,0,0,1,5.35,3.15,39.37,39.37,0,0,1,3.84,7.68c1.68,4.82,3,9.76,4.4,14.69a52.71,52.71,0,0,1,2,14c0,4.32-.09,8.64-.1,13a13.46,13.46,0,0,0,3.94,9.72c3,3.17,5.95,6.48,8.73,9.88a30.46,30.46,0,0,1,6.16,11.82c.33,1.29.59,2.6.87,3.9v7.68a50,50,0,0,1-1.68,6.69c-3.38,8.5-8.81,15.46-16.83,20-5.27,3-10.91,5.32-16.44,7.82s-11.09,5-15.88,8.84c-7.87,6.31-12,14.8-13.94,24.49a4.06,4.06,0,0,0,.05,1,7.12,7.12,0,0,0,4-3c2-2.6,3.84-5.31,5.82-7.93a36.65,36.65,0,0,1,12.58-10.9,106.53,106.53,0,0,1,24.91-9.19c1.53-.35,3.1-.52,4.76-.79a9.78,9.78,0,0,1,.23,1.41,96.94,96.94,0,0,1-3.06,26.6c-5.06,18.41-17,29.75-35.53,34.19l-.71.15c-2.82.69-3.34,1.44-2.7,4.21.38,1.63.85,3.25,1.38,4.84,1.91,5.85,3.87,11.69,5.81,17.53a174.15,174.15,0,0,1,9.16,50.05,219.66,219.66,0,0,1-1.21,30.66A186.42,186.42,0,0,1,427,344.94c-4.36,13.83-10.4,26.82-19.26,38.4-6.85,9-13.77,17.86-20.49,26.91-5.47,7.38-10.73,14.93-16,22.44a15.23,15.23,0,0,0-2.78,7.58c-.47,5.73-1.26,11.47-1.21,17.2.07,8.79.63,17.57,1.18,26.35a189.27,189.27,0,0,0,3.44,25.4c1.19,6,3,11.75,6.53,16.86a20.22,20.22,0,0,1,2.57,5.9c.84,2.83,1.37,5.75,2,8.64,1.28,6.18,2.19,12.45,3.83,18.53,5,18.44,10.22,36.8,15.37,55.2a19.88,19.88,0,0,0,4,7.57c1.29,1.53,2.64,3,4,4.47a23.42,23.42,0,0,1,5.56,9.41,42,42,0,0,1-4.71,2c-6.5,1.92-13,1.35-19.37-.55a2.82,2.82,0,0,1-1.59-1.57c-.71-2-1.27-4.12-1.78-6.21-.55-2.33-.9-4.7-1.48-7a7.38,7.38,0,0,0-3.34-4.79,5.22,5.22,0,0,1-2.52-3.63c-.22-1.1-.59-2.16-.81-3.26-2.08-10.33-4.13-20.68-6.22-31-2.41-11.87-5.83-23.4-11.46-34.21a74.13,74.13,0,0,1-7.29-21.24,91.52,91.52,0,0,0-3.28-11.49c-1.05-3.28-2.41-6.45-3.44-9.72-4-12.89-7.93-25.82-12-38.69-2.33-7.31-4.83-14.6-8.77-21.24-3-5.12-2.12-4.43-8.13-4.29a1.29,1.29,0,0,0-.31.11,7,7,0,0,0-.45,1.27c-1.17,7-2.45,14-3.45,21.06-1.49,10.52-3,21-4.1,31.61-.75,7.3-.83,14.67-1.09,22-.08,2.31.32,4.63.37,6.94.11,5,.49,10.08-.9,15a16.22,16.22,0,0,0-.46,3.56c-.34,6.79-.72,13.57-.93,20.37-.32,10.31-.85,20.61-.22,30.94a118.09,118.09,0,0,0,2.46,19.47c1.41,6.13,4.22,11.34,9.27,15.25a40,40,0,0,1,4.22,3.91,14.64,14.64,0,0,1,4.09,7.94c-1.4.5-2.72,1-4.08,1.43-5.62,1.58-11.34,1.71-17.13,1.46a6.47,6.47,0,0,1-6-4c-.42-.86-.79-1.75-1.13-2.64-.54-1.42-1-2.87-1.57-4.27-1.29-3.22-2.79-6.3-5.6-8.52a3.06,3.06,0,0,1-1.14-2.77,23.21,23.21,0,0,1,.25-2.62,122,122,0,0,0,2.25-18.3,242.78,242.78,0,0,0-1.66-34A144.46,144.46,0,0,0,288,541.78a66.07,66.07,0,0,1-1.73-25.2c.43-4.05.8-8.12,1.06-12.18.52-8.39-1.15-16.55-2.56-24.75-1.12-6.53-2.55-13-2.83-19.67q-.24-5.52-.79-11a20.53,20.53,0,0,0-2.35-8.29c-5.74,2.31-11.6,2.94-17.52,3.19a160.79,160.79,0,0,1-33.43-2.37,78,78,0,0,1-15.76-4c-1.31-.51-2.57-1.15-3.88-1.74a9.94,9.94,0,0,0-.62.92c-.32.64-.63,1.29-.9,2-2.46,5.93-3.09,12.2-3.43,18.53a133.48,133.48,0,0,1-1.67,16.44,120.16,120.16,0,0,0-1.95,14.48c-.81,14.62,1.07,29,3.93,43.35,3.69,18.51,8.41,36.76,13.48,54.93,2.72,9.77,5.83,19.44,8.78,29.15a21.59,21.59,0,0,0,6.21,9.53c1.29,1.2,2.53,2.46,3.74,3.73a22.54,22.54,0,0,1,5.91,9.88c-5.57,1.22-10.94,2.81-16.56,3a21.33,21.33,0,0,1-5.22-.47c-3-.65-4.47-2.4-4.87-5.48a27.29,27.29,0,0,1-.18-2.87c-.08-3.47-1.32-6.18-4.74-7.62a16.58,16.58,0,0,1-3-1.88,4.31,4.31,0,0,1-1.91-3.16c-.49-3.72-1.18-7.42-1.74-11.13a157,157,0,0,0-9.12-34.94c-4.57-11.52-8.94-23.11-13.3-34.7-4-10.65-8.53-21-14.62-30.69-3.88-6.17-5-13.1-4.5-20.27.44-5.81,1.18-11.6,1.88-17.39a50.67,50.67,0,0,0-2.63-24.32c-3.28-8.75-8.35-16.18-16.29-21.38-1.25-.81-2.59-1.48-4-2.26-.59.88-1.06,1.52-1.47,2.19-3.09,5.05-6.21,10.07-9.22,15.17-6.17,10.44-13.7,19.65-23.55,26.88a20.58,20.58,0,0,0-8.3,13.82c-1.08,6.71-2.19,13.41-3.46,20.08-2.25,11.93-4.45,23.88-7,35.75-4.51,21-9.5,41.93-12.39,63.26a102,102,0,0,0-1.18,18.4,16.2,16.2,0,0,0,3.31,9.59c1.73,2.19,3.65,4.23,5.5,6.32s4,4.36,5.84,6.67a7.22,7.22,0,0,1,1.77,4.95c-.95.29-1.84.62-2.76.85-2,.51-4,1-6,1.46ZM438,119.31a17.41,17.41,0,0,0,8.38-2,13.1,13.1,0,0,0,6.51-15.68c-1.12-3.6-2.85-5-7-5.34C442.57,103.6,438.67,110.76,438,119.31Zm13.13-41.15c-.27,2-1.91,3.66-.56,5.4a6,6,0,0,0,5.62,2.61C455.65,82.86,454.55,80.08,451.17,78.16Z"/><path d="M602.72,412.5V397.7h-.56a54,54,0,0,1-11.53,12.24q-5.85,4.28-16.37,4.27a36.39,36.39,0,0,1-10.39-1.57,26.89,26.89,0,0,1-10.11-5.84q-4.85-4-7.83-11.53c-2-5-3-11.53-3-19.49a103.61,103.61,0,0,1,2-21.5,34.14,34.14,0,0,1,7.41-15.51,30.85,30.85,0,0,1,13.94-9q8.84-3,22.5-3h3.12a16.05,16.05,0,0,1,3.14.29,17.56,17.56,0,0,0,3.41.29,34.44,34.44,0,0,1,4.27.28V312.57q0-7.4-3.13-12.23t-11.39-4.85a16.46,16.46,0,0,0-10.39,3.7c-3.13,2.47-5.17,6.09-6.11,10.82H543.51q1.13-19.35,13.1-31.31a41.17,41.17,0,0,1,13.67-9,46.75,46.75,0,0,1,17.92-3.28,50.6,50.6,0,0,1,17.08,2.85,39.14,39.14,0,0,1,14,8.54,41.87,41.87,0,0,1,9.11,14.24A53.38,53.38,0,0,1,631.76,312V412.5Zm0-62.07a48.49,48.49,0,0,0-8-.85A28.64,28.64,0,0,0,578.67,354Q572,358.42,572,370.08c0,5.51,1.32,10,4,13.38s6.35,5.13,11.1,5.13q7.39,0,11.53-4.85t4.12-13.66Z"/><path d="M653.11,412.5V268.17h29v13.94h.57a41.35,41.35,0,0,1,11-11.24q6.41-4.41,16.37-4.42a33.41,33.41,0,0,1,10.82,1.86,25,25,0,0,1,9.67,6.12,30.77,30.77,0,0,1,6.84,11,46.16,46.16,0,0,1,2.56,16.37V412.5h-29V312.57c0-5.3-1.23-9.49-3.7-12.52s-6-4.56-10.53-4.56q-8.26,0-11.39,5.13t-3.13,14.8V412.5Z"/><path d="M763.85,238.84v-29h29v29Zm0,173.66V268.17h29V412.5Z"/><path d="M816.79,412.5V268.17h29v13.94h.58a41.17,41.17,0,0,1,11-11.24q6.4-4.41,16.37-4.42,9.39,0,15.66,4.56a46.85,46.85,0,0,1,10.25,10,60.43,60.43,0,0,1,12-10.26q6.54-4.26,18.22-4.27a36.09,36.09,0,0,1,11.11,1.86,27.18,27.18,0,0,1,10.24,6.12,31.94,31.94,0,0,1,7.41,11,42,42,0,0,1,2.84,16.37V412.5h-29V312.57c0-5.3-1.24-9.49-3.71-12.52s-6-4.56-10.53-4.56q-8.25,0-11.38,5.13t-3.14,14.8V412.5h-29V312.57c0-5.3-1.23-9.49-3.7-12.52s-6-4.56-10.53-4.56q-8.25,0-11.39,5.13t-3.13,14.8V412.5Z"/><path d="M1040.27,412.5V397.7h-.57a53.8,53.8,0,0,1-11.53,12.24q-5.84,4.28-16.37,4.27a36.45,36.45,0,0,1-10.39-1.57,26.89,26.89,0,0,1-10.11-5.84q-4.84-4-7.82-11.53c-2-5-3-11.53-3-19.49a103.61,103.61,0,0,1,2-21.5,34.24,34.24,0,0,1,7.41-15.51,30.83,30.83,0,0,1,14-9q8.82-3,22.49-3h3.13a16,16,0,0,1,3.13.29,17.59,17.59,0,0,0,3.42.29,34.69,34.69,0,0,1,4.27.28V312.57q0-7.4-3.14-12.23t-11.39-4.85a16.42,16.42,0,0,0-10.38,3.7c-3.14,2.47-5.17,6.09-6.12,10.82H981.05q1.14-19.35,13.1-31.31a41.17,41.17,0,0,1,13.67-9,46.75,46.75,0,0,1,17.92-3.28,50.56,50.56,0,0,1,17.08,2.85,39.14,39.14,0,0,1,14,8.54,41.87,41.87,0,0,1,9.11,14.24A53.38,53.38,0,0,1,1069.3,312V412.5Zm0-62.07a48.7,48.7,0,0,0-8-.85,28.64,28.64,0,0,0-16.08,4.41q-6.69,4.42-6.69,16.09c0,5.51,1.32,10,4,13.38s6.35,5.13,11.1,5.13c4.94,0,8.77-1.61,11.53-4.85s4.13-7.77,4.13-13.66Z"/><path d="M1089,209.81h29v162q0,8.25,3,11.24t11.24,3.85v27.33a93.81,93.81,0,0,1-17.94-1.57,31,31,0,0,1-13.66-6.12,26.56,26.56,0,0,1-8.69-12.1q-3-7.83-3-20.64Z"/><path d="M1196.26,308.59c-.19-4.94-1.75-8.63-4.69-11.1a15.3,15.3,0,0,0-10.11-3.7q-6.84,0-10.53,4.41a15.26,15.26,0,0,0-3.7,10.1,16.89,16.89,0,0,0,2,7.83c1.32,2.57,4.75,4.89,10.25,7l17.08,6.83q16.23,6.27,22.34,17.08a47.21,47.21,0,0,1,6.13,23.63,43.53,43.53,0,0,1-3.28,16.94,45.09,45.09,0,0,1-9,13.81,40.91,40.91,0,0,1-13.67,9.39,43.75,43.75,0,0,1-17.36,3.42q-17.65,0-29.61-11.11a40.66,40.66,0,0,1-9.68-13.52,48.27,48.27,0,0,1-4-18.93h27.33a27.7,27.7,0,0,0,4.13,11.1c2.18,3.41,6,5.13,11.53,5.13a17.21,17.21,0,0,0,11.25-4.13q5-4.12,5-11.53a16.9,16.9,0,0,0-3.13-10.25q-3.13-4.28-11.39-7.4l-14-5.13q-13.67-5.12-21.5-15.23t-7.83-24.62a41.87,41.87,0,0,1,3.43-16.94,41,41,0,0,1,9.39-13.52,38.46,38.46,0,0,1,13.38-8.68,45,45,0,0,1,16.51-3,42.25,42.25,0,0,1,16.37,3.14,37.53,37.53,0,0,1,13,8.82,42.36,42.36,0,0,1,8.54,13.52,44.47,44.47,0,0,1,3.14,16.66Z"/><path d="M1243.8,268.17V224.32h29v43.85h17.94v22.77h-17.94v80a24.86,24.86,0,0,0,1,8,7.94,7.94,0,0,0,3.27,4.27,12.24,12.24,0,0,0,5.56,1.72q3.27.27,8.11.27V412.5h-12q-10,0-16.66-3.14a30,30,0,0,1-10.67-8,31,31,0,0,1-5.83-11,40.17,40.17,0,0,1-1.86-11.8V290.94h-14.51V268.17Z"/><path d="M1332.62,370.93q0,6.84,3.85,10.54c2.56,2.47,6,3.69,10.39,3.69,5.5,0,9.15-1.6,11-4.83a26.09,26.09,0,0,0,3.27-9.68h29q0,19.07-11.67,30.75a40.91,40.91,0,0,1-13.67,9.39,45.24,45.24,0,0,1-17.93,3.42q-13.66,0-23.2-5.69a38.55,38.55,0,0,1-18.94-28.19,107,107,0,0,1-1.13-16.23V316.56a107,107,0,0,1,1.13-16.22,38.55,38.55,0,0,1,18.94-28.19q9.52-5.68,23.2-5.7a46.38,46.38,0,0,1,18.08,3.42,40.6,40.6,0,0,1,13.8,9.39q11.38,12.81,11.39,33.31h-29c0-5.87-1.28-10.2-3.85-12.94s-6-4.14-10.38-4.14-7.83,1.38-10.39,4.14-3.85,6.87-3.85,12.37Z"/><path d="M1436.24,429.29a16.24,16.24,0,0,0,4.14,9.69q3.84,4.54,11.24,4.54,7.11,0,10.24-4.4a19,19,0,0,0,3.14-11.25V399.4h-.57a35,35,0,0,1-11.53,11,30.61,30.61,0,0,1-15.51,3.85q-18.24,0-25.35-13.67a38.78,38.78,0,0,1-3.69-12,125,125,0,0,1-1.14-19.08V314.57a225.64,225.64,0,0,1,.85-23.06q1.71-14.24,13.38-21.35c3.6-2.47,9-3.71,16.22-3.71a32.82,32.82,0,0,1,9.26,1.15,27.68,27.68,0,0,1,7,3.12,30.92,30.92,0,0,1,5.69,4.71c1.71,1.8,3.51,3.75,5.41,5.83V268.17h29v162a49,49,0,0,1-2.41,14.94,36.61,36.61,0,0,1-7.83,13.52,40.24,40.24,0,0,1-13.66,10.11q-8.27,3.84-19.65,3.85a47.59,47.59,0,0,1-13.66-2.13,35.79,35.79,0,0,1-13.1-7.27A40.56,40.56,0,0,1,1413,450.22q-4.41-8.12-5.83-20.93Zm0-61.21a23.4,23.4,0,0,0,3,12q3,5.11,11.25,5.11a13.61,13.61,0,0,0,10.39-4.4,15.83,15.83,0,0,0,4.13-11.25V313.43c0-5.31-1.34-9.63-4-13a12.88,12.88,0,0,0-10.54-5q-7.41,0-10.81,5.41t-3.43,14.24Z"/><path d="M1517.94,412.5v-29h29v29Z"/><path d="M1570.89,238.84v-29h29v29Zm0,173.66V268.17h29V412.5Z"/><path d="M1621.27,316.56a106.93,106.93,0,0,1,1.14-16.22,38.55,38.55,0,0,1,18.94-28.19q9.53-5.68,23.19-5.7t23.2,5.7a39.33,39.33,0,0,1,14.67,15.09,39.83,39.83,0,0,1,4.27,13.1,108.29,108.29,0,0,1,1.13,16.22V364.1a108.34,108.34,0,0,1-1.13,16.23,39.9,39.9,0,0,1-4.27,13.1,39.4,39.4,0,0,1-14.67,15.09q-9.54,5.69-23.2,5.69t-23.19-5.69a38.55,38.55,0,0,1-18.94-28.19,107,107,0,0,1-1.14-16.23Zm29,52.1q0,8.26,3.85,12.38c2.55,2.76,6,4.12,10.38,4.12s7.83-1.36,10.39-4.12,3.85-6.87,3.85-12.38V312q0-8.25-3.85-12.37t-10.39-4.14q-6.55,0-10.38,4.14T1650.31,312Z"/></svg>